<svg width="24" height="24" viewBox="0 0 24 24" fill="none" xmlns="http://www.w3.org/2000/svg">
<g clip-path="url(#clip0_72_19)">
<path d="M6 0.0409556V0.0204778V0H0V6H6V0.0409556Z" fill="#D4D4D4"/>
<path d="M6 9.04096V9.02048V9H0V15H6V9.04096Z" fill="#D4D4D4"/>
<path d="M6 18.041V18.0205V18H0V24H6V18.041Z" fill="#D4D4D4"/>
<path d="M15 0.0409556V0.0204778V0H9V6H15V0.0409556Z" fill="#D4D4D4"/>
<path d="M15 9.04096V9.02048V9H9V15H15V9.04096Z" fill="#D4D4D4"/>
<path d="M15 18.041V18.0205V18H9V24H15V18.041Z" fill="#D4D4D4"/>
<path d="M24 0.0409556V0.0204778V0H18V6H24V0.0409556Z" fill="#D4D4D4"/>
<path d="M24 9.04096V9.02048V9H18V15H24V9.04096Z" fill="#D4D4D4"/>
<path d="M24 18.041V18.0205V18H18V24H24V18.041Z" fill="#D4D4D4"/>
</g>
<defs>
<clipPath id="clip0_72_19">
<rect width="24" height="24" fill="white"/>
</clipPath>
</defs>
</svg>
